<?xml version="1.0" standalone="no"?>
<!DOCTYPE svg PUBLIC "-//W3C//DTD SVG 20010904//EN"
 "http://www.w3.org/TR/2001/REC-SVG-20010904/DTD/svg10.dtd">
<svg version="1.0" xmlns="http://www.w3.org/2000/svg"
 width="3456.000000pt" height="1084.000000pt" viewBox="0 0 3456.000000 1084.000000"
 preserveAspectRatio="xMidYMid meet">

<g transform="translate(0.000000,1084.000000) scale(0.100000,-0.100000)"
fill="#000000" stroke="none">
<path d="M29830 10639 c-2996 -121 -5113 -1195 -6200 -3143 -435 -780 -699
-1708 -751 -2637 -33 -593 69 -1234 282 -1771 211 -531 485 -945 904 -1363
273 -274 518 -465 850 -664 779 -467 1724 -748 2845 -845 571 -50 1306 -46
2015 9 776 61 1603 207 2161 380 158 49 234 113 263 217 26 95 251 1312 251
1356 0 59 -38 140 -83 178 -85 71 -164 80 -313 33 -271 -84 -712 -183 -1034
-233 -421 -65 -760 -90 -1205 -90 -376 0 -510 10 -805 60 -713 120 -1329 420
-1765 858 -678 683 -925 1630 -729 2801 245 1468 1132 2614 2343 3029 595 204
1294 232 1780 70 453 -150 729 -436 837 -866 22 -89 27 -135 33 -328 8 -254
13 -273 90 -343 73 -66 94 -68 578 -65 418 3 429 4 469 25 46 25 110 91 125
131 6 14 122 533 260 1152 137 619 260 1173 274 1233 45 194 28 296 -65 386
-53 52 -96 67 -391 140 -681 168 -1295 258 -1979 291 -235 11 -753 11 -1040
-1z"/>
<path d="M2373 10474 c-55 -20 -126 -84 -152 -137 -11 -23 -56 -206 -101 -407
-87 -392 -90 -417 -52 -502 32 -72 83 -112 206 -164 332 -139 486 -346 512
-685 11 -149 6 -180 -181 -1034 -120 -549 -223 -1020 -540 -2475 -196 -900
-326 -1498 -401 -1840 -129 -592 -260 -955 -447 -1238 -198 -300 -413 -442
-745 -491 -124 -19 -201 -70 -241 -161 -11 -25 -54 -201 -96 -390 -85 -385
-87 -411 -38 -502 15 -28 46 -64 67 -80 86 -62 -94 -58 2601 -56 l2460 3 41
22 c52 28 96 71 118 117 17 36 196 829 196 869 0 44 -30 122 -60 159 -22 27
-69 56 -183 111 -268 132 -380 242 -438 430 -37 120 -33 144 205 1232 119 545
237 1082 262 1195 69 318 85 390 89 390 2 0 45 -75 96 -167 748 -1361 1067
-1908 1433 -2453 848 -1265 1566 -1758 2741 -1880 55 -6 188 -15 295 -20 212
-11 2371 -14 2433 -4 20 4 61 21 89 38 89 53 97 74 188 480 44 198 80 374 80
391 0 57 -29 131 -70 177 -60 69 -108 85 -292 97 -179 12 -276 30 -393 72
-216 78 -437 264 -701 590 -92 113 -581 774 -2661 3596 l-122 166 1752 1459
c1007 839 1796 1490 1856 1530 302 202 702 344 1151 409 219 31 286 73 325
203 40 134 149 655 149 716 0 102 -55 184 -154 229 -45 20 -54 21 -2187 21
-2137 0 -2142 0 -2197 -21 -62 -23 -137 -97 -155 -152 -23 -70 -161 -711 -161
-748 0 -57 35 -139 77 -183 22 -22 75 -56 128 -81 147 -71 209 -149 209 -265
0 -70 -19 -118 -71 -180 -15 -18 -536 -457 -1158 -974 -621 -517 -1429 -1190
-1794 -1494 -365 -304 -665 -551 -667 -550 -1 2 38 188 87 413 49 226 119 543
154 705 263 1203 377 1713 393 1760 95 273 308 471 622 581 112 39 166 78 202
144 30 57 181 718 181 795 1 97 -56 183 -148 226 l-50 24 -2350 -1 c-2048 0
-2355 -2 -2392 -15z"/>
<path d="M14684 10474 c-59 -21 -119 -76 -148 -137 -32 -68 -178 -721 -178
-798 0 -120 61 -196 202 -254 148 -62 236 -119 331 -214 71 -72 94 -103 132
-182 63 -128 81 -221 75 -393 -5 -127 -13 -168 -292 -1431 -302 -1367 -447
-2025 -522 -2365 -42 -190 -138 -625 -364 -1650 -49 -223 -152 -691 -229
-1040 -77 -349 -179 -810 -226 -1025 -92 -413 -96 -453 -61 -526 24 -50 73
-98 126 -123 l45 -21 1965 -3 c2218 -3 2034 -9 2119 76 25 26 51 63 58 82 27
79 183 813 183 860 0 109 -47 166 -202 247 -244 127 -399 302 -460 520 -27 98
-29 261 -4 378 16 71 208 950 333 1522 l47 213 1670 2 1671 3 41 22 c48 26 99
73 119 113 8 15 87 355 176 756 177 800 176 792 124 879 -28 49 -72 86 -128
110 -32 13 -223 15 -1642 15 -1307 0 -1605 2 -1605 13 0 10 452 2082 562 2577
l23 105 1205 0 c1193 0 1206 0 1300 -21 333 -74 509 -251 576 -575 13 -63 17
-141 19 -314 1 -148 5 -240 13 -257 17 -41 81 -107 126 -131 40 -22 47 -22
516 -22 l475 0 55 31 c103 59 101 54 229 630 62 280 189 853 283 1274 107 481
170 786 170 820 0 31 -7 71 -15 91 -20 49 -72 106 -121 132 l-41 22 -4345 2
c-3789 1 -4350 0 -4386 -13z"/>
</g>
</svg>
